<?xml version="1.0" encoding="UTF-8" standalone="no"?>
<!-- Created with Inkscape (http://www.inkscape.org/) -->
<svg
   xmlns:svg="http://www.w3.org/2000/svg"
   xmlns="http://www.w3.org/2000/svg"
   xmlns:xlink="http://www.w3.org/1999/xlink"
   version="1.0"
   width="732.08069"
   height="839.9007"
   id="svg2">
  <defs
     id="defs5">
    <linearGradient
       x1="-323.6478"
       y1="242.23868"
       x2="-328.68616"
       y2="252.62679"
       id="linearGradient2813"
       xlink:href="#linearGradient2531"
       gradientUnits="userSpaceOnUse"
       gradientTransform="matrix(0.194324,0.980937,0.980937,-0.194324,-461.8023,566.4503)" />
    <linearGradient
       x1="-324.09848"
       y1="241.78635"
       x2="-328.69925"
       y2="250.28239"
       id="linearGradient2811"
       xlink:href="#linearGradient2531"
       gradientUnits="userSpaceOnUse" />
    <linearGradient
       x1="-566.93445"
       y1="302.67395"
       x2="-576.93475"
       y2="294.53494"
       id="linearGradient2809"
       xlink:href="#linearGradient2486"
       gradientUnits="userSpaceOnUse"
       gradientTransform="matrix(-0.763888,-0.645349,0.645349,-0.763888,-884.7079,109.284)" />
    <radialGradient
       cx="-706.76215"
       cy="210.2256"
       r="29.071609"
       fx="-706.76215"
       fy="210.2256"
       id="radialGradient2807"
       xlink:href="#linearGradient2486"
       gradientUnits="userSpaceOnUse"
       gradientTransform="matrix(1.694182,1.49278e-3,-0.174812,2.845644,529.3072,-387.1613)" />
    <linearGradient
       x1="-323.6478"
       y1="242.23868"
       x2="-328.68616"
       y2="252.62679"
       id="linearGradient2805"
       xlink:href="#linearGradient2531"
       gradientUnits="userSpaceOnUse"
       gradientTransform="matrix(0.194324,0.980937,0.980937,-0.194324,-461.8023,566.4503)" />
    <linearGradient
       x1="-324.09848"
       y1="241.78635"
       x2="-328.69925"
       y2="250.28239"
       id="linearGradient2803"
       xlink:href="#linearGradient2531"
       gradientUnits="userSpaceOnUse" />
    <linearGradient
       x1="-566.93445"
       y1="302.67395"
       x2="-576.93475"
       y2="294.53494"
       id="linearGradient2801"
       xlink:href="#linearGradient2486"
       gradientUnits="userSpaceOnUse"
       gradientTransform="matrix(-0.763888,-0.645349,0.645349,-0.763888,-884.7079,109.284)" />
    <radialGradient
       cx="-706.76215"
       cy="210.2256"
       r="29.071609"
       fx="-706.76215"
       fy="210.2256"
       id="radialGradient2799"
       xlink:href="#linearGradient2486"
       gradientUnits="userSpaceOnUse"
       gradientTransform="matrix(1.694182,1.49278e-3,-0.174812,2.845644,529.3072,-387.1613)" />
    <linearGradient
       x1="-323.6478"
       y1="242.23868"
       x2="-328.68616"
       y2="252.62679"
       id="linearGradient2797"
       xlink:href="#linearGradient2531"
       gradientUnits="userSpaceOnUse"
       gradientTransform="matrix(0.194324,0.980937,0.980937,-0.194324,-461.8023,566.4503)" />
    <linearGradient
       x1="-324.09848"
       y1="241.78635"
       x2="-328.69925"
       y2="250.28239"
       id="linearGradient2795"
       xlink:href="#linearGradient2531"
       gradientUnits="userSpaceOnUse" />
    <linearGradient
       x1="-566.93445"
       y1="302.67395"
       x2="-576.93475"
       y2="294.53494"
       id="linearGradient2793"
       xlink:href="#linearGradient2486"
       gradientUnits="userSpaceOnUse"
       gradientTransform="matrix(-0.763888,-0.645349,0.645349,-0.763888,-884.7079,109.284)" />
    <radialGradient
       cx="-706.76215"
       cy="210.2256"
       r="29.071609"
       fx="-706.76215"
       fy="210.2256"
       id="radialGradient2791"
       xlink:href="#linearGradient2486"
       gradientUnits="userSpaceOnUse"
       gradientTransform="matrix(1.694182,1.49278e-3,-0.174812,2.845644,529.3072,-387.1613)" />
    <linearGradient
       x1="-323.6478"
       y1="242.23868"
       x2="-328.68616"
       y2="252.62679"
       id="linearGradient2715"
       xlink:href="#linearGradient2531"
       gradientUnits="userSpaceOnUse"
       gradientTransform="matrix(0.194324,0.980937,0.980937,-0.194324,-461.8023,566.4503)" />
    <linearGradient
       x1="-324.09848"
       y1="241.78635"
       x2="-328.69925"
       y2="250.28239"
       id="linearGradient2713"
       xlink:href="#linearGradient2531"
       gradientUnits="userSpaceOnUse" />
    <linearGradient
       x1="-566.93445"
       y1="302.67395"
       x2="-576.93475"
       y2="294.53494"
       id="linearGradient2711"
       xlink:href="#linearGradient2486"
       gradientUnits="userSpaceOnUse"
       gradientTransform="matrix(-0.763888,-0.645349,0.645349,-0.763888,-884.7079,109.284)" />
    <radialGradient
       cx="-706.76215"
       cy="210.2256"
       r="29.071609"
       fx="-706.76215"
       fy="210.2256"
       id="radialGradient2709"
       xlink:href="#linearGradient2486"
       gradientUnits="userSpaceOnUse"
       gradientTransform="matrix(1.694182,1.49278e-3,-0.174812,2.845644,529.3072,-387.1613)" />
    <linearGradient
       x1="-323.6478"
       y1="242.23868"
       x2="-328.68616"
       y2="252.62679"
       id="linearGradient2659"
       xlink:href="#linearGradient2531"
       gradientUnits="userSpaceOnUse"
       gradientTransform="matrix(0.194324,0.980937,0.980937,-0.194324,-461.8023,566.4503)" />
    <linearGradient
       x1="-324.09848"
       y1="241.78635"
       x2="-328.69925"
       y2="250.28239"
       id="linearGradient2657"
       xlink:href="#linearGradient2531"
       gradientUnits="userSpaceOnUse" />
    <linearGradient
       x1="-566.93445"
       y1="302.67395"
       x2="-576.93475"
       y2="294.53494"
       id="linearGradient2655"
       xlink:href="#linearGradient2486"
       gradientUnits="userSpaceOnUse"
       gradientTransform="matrix(-0.763888,-0.645349,0.645349,-0.763888,-884.7079,109.284)" />
    <radialGradient
       cx="-706.76215"
       cy="210.2256"
       r="29.071609"
       fx="-706.76215"
       fy="210.2256"
       id="radialGradient2653"
       xlink:href="#linearGradient2486"
       gradientUnits="userSpaceOnUse"
       gradientTransform="matrix(1.694182,1.49278e-3,-0.174812,2.845644,529.3072,-387.1613)" />
    <radialGradient
       cx="-706.76215"
       cy="210.2256"
       r="29.071609"
       fx="-706.76215"
       fy="210.2256"
       id="radialGradient2601"
       xlink:href="#linearGradient2486"
       gradientUnits="userSpaceOnUse"
       gradientTransform="matrix(1.694182,1.49278e-3,-0.174812,2.845644,529.3072,-387.1613)" />
    <linearGradient
       x1="-323.6478"
       y1="242.23868"
       x2="-328.68616"
       y2="252.62679"
       id="linearGradient2566"
       xlink:href="#linearGradient2531"
       gradientUnits="userSpaceOnUse"
       gradientTransform="matrix(0.194324,0.980937,0.980937,-0.194324,-461.8023,566.4503)" />
    <linearGradient
       x1="-324.09848"
       y1="241.78635"
       x2="-328.69925"
       y2="250.28239"
       id="linearGradient2564"
       xlink:href="#linearGradient2531"
       gradientUnits="userSpaceOnUse" />
    <linearGradient
       x1="-566.93445"
       y1="302.67395"
       x2="-576.93475"
       y2="294.53494"
       id="linearGradient2562"
       xlink:href="#linearGradient2486"
       gradientUnits="userSpaceOnUse"
       gradientTransform="matrix(-0.763888,-0.645349,0.645349,-0.763888,-884.7079,109.284)" />
    <linearGradient
       id="linearGradient2486">
      <stop
         id="stop2488"
         style="stop-color:#faff00;stop-opacity:1"
         offset="0" />
      <stop
         id="stop2603"
         style="stop-color:#7d7323;stop-opacity:0.99215686"
         offset="0.84615386" />
      <stop
         id="stop2494"
         style="stop-color:#000000;stop-opacity:0.98431373"
         offset="1" />
    </linearGradient>
    <linearGradient
       id="linearGradient2531">
      <stop
         id="stop2533"
         style="stop-color:#fae646;stop-opacity:1"
         offset="0" />
      <stop
         id="stop2539"
         style="stop-color:#643228;stop-opacity:1"
         offset="0.88461536" />
      <stop
         id="stop2535"
         style="stop-color:#fae646;stop-opacity:1"
         offset="1" />
    </linearGradient>
    <radialGradient
       cx="-706.76215"
       cy="210.2256"
       r="29.071609"
       fx="-706.76215"
       fy="210.2256"
       id="radialGradient2981"
       xlink:href="#linearGradient2486"
       gradientUnits="userSpaceOnUse"
       gradientTransform="matrix(1.694182,1.49278e-3,-0.174812,2.845644,529.3072,-387.1613)" />
    <linearGradient
       x1="-566.93445"
       y1="302.67395"
       x2="-576.93475"
       y2="294.53494"
       id="linearGradient2983"
       xlink:href="#linearGradient2486"
       gradientUnits="userSpaceOnUse"
       gradientTransform="matrix(-0.763888,-0.645349,0.645349,-0.763888,-884.7079,109.284)" />
    <linearGradient
       x1="-324.09848"
       y1="241.78635"
       x2="-328.69925"
       y2="250.28239"
       id="linearGradient2985"
       xlink:href="#linearGradient2531"
       gradientUnits="userSpaceOnUse" />
    <linearGradient
       x1="-323.6478"
       y1="242.23868"
       x2="-328.68616"
       y2="252.62679"
       id="linearGradient2987"
       xlink:href="#linearGradient2531"
       gradientUnits="userSpaceOnUse"
       gradientTransform="matrix(0.194324,0.980937,0.980937,-0.194324,-461.8023,566.4503)" />
    <radialGradient
       cx="-706.76215"
       cy="210.2256"
       r="29.071609"
       fx="-706.76215"
       fy="210.2256"
       id="radialGradient3018"
       xlink:href="#linearGradient2486"
       gradientUnits="userSpaceOnUse"
       gradientTransform="matrix(1.694182,1.49278e-3,-0.174812,2.845644,529.3072,-387.1613)" />
    <linearGradient
       x1="-566.93445"
       y1="302.67395"
       x2="-576.93475"
       y2="294.53494"
       id="linearGradient3020"
       xlink:href="#linearGradient2486"
       gradientUnits="userSpaceOnUse"
       gradientTransform="matrix(-0.763888,-0.645349,0.645349,-0.763888,-884.7079,109.284)" />
    <linearGradient
       x1="-324.09848"
       y1="241.78635"
       x2="-328.69925"
       y2="250.28239"
       id="linearGradient3022"
       xlink:href="#linearGradient2531"
       gradientUnits="userSpaceOnUse" />
    <linearGradient
       x1="-323.6478"
       y1="242.23868"
       x2="-328.68616"
       y2="252.62679"
       id="linearGradient3024"
       xlink:href="#linearGradient2531"
       gradientUnits="userSpaceOnUse"
       gradientTransform="matrix(0.194324,0.980937,0.980937,-0.194324,-461.8023,566.4503)" />
    <radialGradient
       cx="-706.76215"
       cy="210.2256"
       r="29.071609"
       fx="-706.76215"
       fy="210.2256"
       id="radialGradient3055"
       xlink:href="#linearGradient2486"
       gradientUnits="userSpaceOnUse"
       gradientTransform="matrix(1.694182,1.49278e-3,-0.174812,2.845644,529.3072,-387.1613)" />
    <linearGradient
       x1="-566.93445"
       y1="302.67395"
       x2="-576.93475"
       y2="294.53494"
       id="linearGradient3057"
       xlink:href="#linearGradient2486"
       gradientUnits="userSpaceOnUse"
       gradientTransform="matrix(-0.763888,-0.645349,0.645349,-0.763888,-884.7079,109.284)" />
    <linearGradient
       x1="-324.09848"
       y1="241.78635"
       x2="-328.69925"
       y2="250.28239"
       id="linearGradient3059"
       xlink:href="#linearGradient2531"
       gradientUnits="userSpaceOnUse" />
    <linearGradient
       x1="-323.6478"
       y1="242.23868"
       x2="-328.68616"
       y2="252.62679"
       id="linearGradient3061"
       xlink:href="#linearGradient2531"
       gradientUnits="userSpaceOnUse"
       gradientTransform="matrix(0.194324,0.980937,0.980937,-0.194324,-461.8023,566.4503)" />
    <radialGradient
       cx="-706.76215"
       cy="210.2256"
       r="29.071609"
       fx="-706.76215"
       fy="210.2256"
       id="radialGradient3090"
       xlink:href="#linearGradient2486"
       gradientUnits="userSpaceOnUse"
       gradientTransform="matrix(1.694182,1.49278e-3,-0.174812,2.845644,529.3072,-387.1613)" />
    <linearGradient
       x1="-566.93445"
       y1="302.67395"
       x2="-576.93475"
       y2="294.53494"
       id="linearGradient3092"
       xlink:href="#linearGradient2486"
       gradientUnits="userSpaceOnUse"
       gradientTransform="matrix(-0.763888,-0.645349,0.645349,-0.763888,-884.7079,109.284)" />
    <linearGradient
       x1="-324.09848"
       y1="241.78635"
       x2="-328.69925"
       y2="250.28239"
       id="linearGradient3094"
       xlink:href="#linearGradient2531"
       gradientUnits="userSpaceOnUse" />
    <linearGradient
       x1="-323.6478"
       y1="242.23868"
       x2="-328.68616"
       y2="252.62679"
       id="linearGradient3096"
       xlink:href="#linearGradient2531"
       gradientUnits="userSpaceOnUse"
       gradientTransform="matrix(0.194324,0.980937,0.980937,-0.194324,-461.8023,566.4503)" />
    <radialGradient
       cx="-706.76215"
       cy="210.2256"
       r="29.071609"
       fx="-706.76215"
       fy="210.2256"
       id="radialGradient3121"
       xlink:href="#linearGradient2486"
       gradientUnits="userSpaceOnUse"
       gradientTransform="matrix(1.694182,1.49278e-3,-0.174812,2.845644,529.3072,-387.1613)" />
    <linearGradient
       x1="-566.93445"
       y1="302.67395"
       x2="-576.93475"
       y2="294.53494"
       id="linearGradient3133"
       xlink:href="#linearGradient2486"
       gradientUnits="userSpaceOnUse"
       gradientTransform="matrix(-0.763888,-0.645349,0.645349,-0.763888,-884.7079,109.284)" />
    <linearGradient
       x1="-324.09848"
       y1="241.78635"
       x2="-328.69925"
       y2="250.28239"
       id="linearGradient3135"
       xlink:href="#linearGradient2531"
       gradientUnits="userSpaceOnUse" />
    <linearGradient
       x1="-323.6478"
       y1="242.23868"
       x2="-328.68616"
       y2="252.62679"
       id="linearGradient3137"
       xlink:href="#linearGradient2531"
       gradientUnits="userSpaceOnUse"
       gradientTransform="matrix(0.194324,0.980937,0.980937,-0.194324,-461.8023,566.4503)" />
    <linearGradient
       x1="-566.93445"
       y1="302.67395"
       x2="-576.93475"
       y2="294.53494"
       id="linearGradient3200"
       xlink:href="#linearGradient2486"
       gradientUnits="userSpaceOnUse"
       gradientTransform="matrix(-0.763888,-0.645349,0.645349,-0.763888,-884.7079,109.284)" />
    <linearGradient
       x1="-324.09848"
       y1="241.78635"
       x2="-328.69925"
       y2="250.28239"
       id="linearGradient3202"
       xlink:href="#linearGradient2531"
       gradientUnits="userSpaceOnUse" />
    <linearGradient
       x1="-323.6478"
       y1="242.23868"
       x2="-328.68616"
       y2="252.62679"
       id="linearGradient3204"
       xlink:href="#linearGradient2531"
       gradientUnits="userSpaceOnUse"
       gradientTransform="matrix(0.194324,0.980937,0.980937,-0.194324,-461.8023,566.4503)" />
    <linearGradient
       x1="-566.93445"
       y1="302.67395"
       x2="-576.93475"
       y2="294.53494"
       id="linearGradient3260"
       xlink:href="#linearGradient2486"
       gradientUnits="userSpaceOnUse"
       gradientTransform="matrix(-0.763888,-0.645349,0.645349,-0.763888,-884.7079,109.284)" />
    <linearGradient
       x1="-324.09848"
       y1="241.78635"
       x2="-328.69925"
       y2="250.28239"
       id="linearGradient3262"
       xlink:href="#linearGradient2531"
       gradientUnits="userSpaceOnUse" />
    <linearGradient
       x1="-323.6478"
       y1="242.23868"
       x2="-328.68616"
       y2="252.62679"
       id="linearGradient3264"
       xlink:href="#linearGradient2531"
       gradientUnits="userSpaceOnUse"
       gradientTransform="matrix(0.194324,0.980937,0.980937,-0.194324,-461.8023,566.4503)" />
    <linearGradient
       x1="-566.93445"
       y1="302.67395"
       x2="-576.93475"
       y2="294.53494"
       id="linearGradient3320"
       xlink:href="#linearGradient2486"
       gradientUnits="userSpaceOnUse"
       gradientTransform="matrix(-0.763888,-0.645349,0.645349,-0.763888,-884.7079,109.284)" />
    <linearGradient
       x1="-324.09848"
       y1="241.78635"
       x2="-328.69925"
       y2="250.28239"
       id="linearGradient3322"
       xlink:href="#linearGradient2531"
       gradientUnits="userSpaceOnUse" />
    <linearGradient
       x1="-323.6478"
       y1="242.23868"
       x2="-328.68616"
       y2="252.62679"
       id="linearGradient3324"
       xlink:href="#linearGradient2531"
       gradientUnits="userSpaceOnUse"
       gradientTransform="matrix(0.194324,0.980937,0.980937,-0.194324,-461.8023,566.4503)" />
    <linearGradient
       x1="-566.93445"
       y1="302.67395"
       x2="-576.93475"
       y2="294.53494"
       id="linearGradient3410"
       xlink:href="#linearGradient2486"
       gradientUnits="userSpaceOnUse"
       gradientTransform="matrix(-0.763888,-0.645349,0.645349,-0.763888,-884.7079,109.284)" />
    <linearGradient
       x1="-324.09848"
       y1="241.78635"
       x2="-328.69925"
       y2="250.28239"
       id="linearGradient3412"
       xlink:href="#linearGradient2531"
       gradientUnits="userSpaceOnUse" />
    <linearGradient
       x1="-323.6478"
       y1="242.23868"
       x2="-328.68616"
       y2="252.62679"
       id="linearGradient3414"
       xlink:href="#linearGradient2531"
       gradientUnits="userSpaceOnUse"
       gradientTransform="matrix(0.194324,0.980937,0.980937,-0.194324,-461.8023,566.4503)" />
    <linearGradient
       x1="-566.93445"
       y1="302.67395"
       x2="-576.93475"
       y2="294.53494"
       id="linearGradient3416"
       xlink:href="#linearGradient2486"
       gradientUnits="userSpaceOnUse"
       gradientTransform="matrix(-0.763888,-0.645349,0.645349,-0.763888,-884.7079,109.284)" />
    <linearGradient
       x1="-324.09848"
       y1="241.78635"
       x2="-328.69925"
       y2="250.28239"
       id="linearGradient3418"
       xlink:href="#linearGradient2531"
       gradientUnits="userSpaceOnUse" />
    <linearGradient
       x1="-323.6478"
       y1="242.23868"
       x2="-328.68616"
       y2="252.62679"
       id="linearGradient3420"
       xlink:href="#linearGradient2531"
       gradientUnits="userSpaceOnUse"
       gradientTransform="matrix(0.194324,0.980937,0.980937,-0.194324,-461.8023,566.4503)" />
    <linearGradient
       x1="-566.93445"
       y1="302.67395"
       x2="-576.93475"
       y2="294.53494"
       id="linearGradient3422"
       xlink:href="#linearGradient2486"
       gradientUnits="userSpaceOnUse"
       gradientTransform="matrix(-0.763888,-0.645349,0.645349,-0.763888,-884.7079,109.284)" />
    <linearGradient
       x1="-324.09848"
       y1="241.78635"
       x2="-328.69925"
       y2="250.28239"
       id="linearGradient3424"
       xlink:href="#linearGradient2531"
       gradientUnits="userSpaceOnUse" />
    <linearGradient
       x1="-323.6478"
       y1="242.23868"
       x2="-328.68616"
       y2="252.62679"
       id="linearGradient3426"
       xlink:href="#linearGradient2531"
       gradientUnits="userSpaceOnUse"
       gradientTransform="matrix(0.194324,0.980937,0.980937,-0.194324,-461.8023,566.4503)" />
    <linearGradient
       x1="-566.93445"
       y1="302.67395"
       x2="-576.93475"
       y2="294.53494"
       id="linearGradient3674"
       xlink:href="#linearGradient2486"
       gradientUnits="userSpaceOnUse"
       gradientTransform="matrix(-0.763888,-0.645349,0.645349,-0.763888,-884.7079,109.284)" />
    <linearGradient
       x1="-324.09848"
       y1="241.78635"
       x2="-328.69925"
       y2="250.28239"
       id="linearGradient3676"
       xlink:href="#linearGradient2531"
       gradientUnits="userSpaceOnUse" />
    <linearGradient
       x1="-323.6478"
       y1="242.23868"
       x2="-328.68616"
       y2="252.62679"
       id="linearGradient3678"
       xlink:href="#linearGradient2531"
       gradientUnits="userSpaceOnUse"
       gradientTransform="matrix(0.194324,0.980937,0.980937,-0.194324,-461.8023,566.4503)" />
    <linearGradient
       x1="-566.93445"
       y1="302.67395"
       x2="-576.93475"
       y2="294.53494"
       id="linearGradient3680"
       xlink:href="#linearGradient2486"
       gradientUnits="userSpaceOnUse"
       gradientTransform="matrix(-0.763888,-0.645349,0.645349,-0.763888,-884.7079,109.284)" />
    <linearGradient
       x1="-324.09848"
       y1="241.78635"
       x2="-328.69925"
       y2="250.28239"
       id="linearGradient3682"
       xlink:href="#linearGradient2531"
       gradientUnits="userSpaceOnUse" />
    <linearGradient
       x1="-323.6478"
       y1="242.23868"
       x2="-328.68616"
       y2="252.62679"
       id="linearGradient3684"
       xlink:href="#linearGradient2531"
       gradientUnits="userSpaceOnUse"
       gradientTransform="matrix(0.194324,0.980937,0.980937,-0.194324,-461.8023,566.4503)" />
    <linearGradient
       x1="-566.93445"
       y1="302.67395"
       x2="-576.93475"
       y2="294.53494"
       id="linearGradient3686"
       xlink:href="#linearGradient2486"
       gradientUnits="userSpaceOnUse"
       gradientTransform="matrix(-0.763888,-0.645349,0.645349,-0.763888,-884.7079,109.284)" />
    <linearGradient
       x1="-324.09848"
       y1="241.78635"
       x2="-328.69925"
       y2="250.28239"
       id="linearGradient3688"
       xlink:href="#linearGradient2531"
       gradientUnits="userSpaceOnUse" />
    <linearGradient
       x1="-323.6478"
       y1="242.23868"
       x2="-328.68616"
       y2="252.62679"
       id="linearGradient3690"
       xlink:href="#linearGradient2531"
       gradientUnits="userSpaceOnUse"
       gradientTransform="matrix(0.194324,0.980937,0.980937,-0.194324,-461.8023,566.4503)" />
    <linearGradient
       x1="-566.93445"
       y1="302.67395"
       x2="-576.93475"
       y2="294.53494"
       id="linearGradient3793"
       xlink:href="#linearGradient2486"
       gradientUnits="userSpaceOnUse"
       gradientTransform="matrix(-0.763888,-0.645349,0.645349,-0.763888,-884.7079,109.284)" />
    <linearGradient
       x1="-324.09848"
       y1="241.78635"
       x2="-328.69925"
       y2="250.28239"
       id="linearGradient3795"
       xlink:href="#linearGradient2531"
       gradientUnits="userSpaceOnUse" />
    <linearGradient
       x1="-323.6478"
       y1="242.23868"
       x2="-328.68616"
       y2="252.62679"
       id="linearGradient3797"
       xlink:href="#linearGradient2531"
       gradientUnits="userSpaceOnUse"
       gradientTransform="matrix(0.194324,0.980937,0.980937,-0.194324,-461.8023,566.4503)" />
    <linearGradient
       x1="-566.93445"
       y1="302.67395"
       x2="-576.93475"
       y2="294.53494"
       id="linearGradient3799"
       xlink:href="#linearGradient2486"
       gradientUnits="userSpaceOnUse"
       gradientTransform="matrix(-0.763888,-0.645349,0.645349,-0.763888,-884.7079,109.284)" />
    <linearGradient
       x1="-324.09848"
       y1="241.78635"
       x2="-328.69925"
       y2="250.28239"
       id="linearGradient3801"
       xlink:href="#linearGradient2531"
       gradientUnits="userSpaceOnUse" />
    <linearGradient
       x1="-323.6478"
       y1="242.23868"
       x2="-328.68616"
       y2="252.62679"
       id="linearGradient3803"
       xlink:href="#linearGradient2531"
       gradientUnits="userSpaceOnUse"
       gradientTransform="matrix(0.194324,0.980937,0.980937,-0.194324,-461.8023,566.4503)" />
    <linearGradient
       x1="-566.93445"
       y1="302.67395"
       x2="-576.93475"
       y2="294.53494"
       id="linearGradient3805"
       xlink:href="#linearGradient2486"
       gradientUnits="userSpaceOnUse"
       gradientTransform="matrix(-0.763888,-0.645349,0.645349,-0.763888,-884.7079,109.284)" />
    <linearGradient
       x1="-324.09848"
       y1="241.78635"
       x2="-328.69925"
       y2="250.28239"
       id="linearGradient3807"
       xlink:href="#linearGradient2531"
       gradientUnits="userSpaceOnUse" />
    <linearGradient
       x1="-323.6478"
       y1="242.23868"
       x2="-328.68616"
       y2="252.62679"
       id="linearGradient3809"
       xlink:href="#linearGradient2531"
       gradientUnits="userSpaceOnUse"
       gradientTransform="matrix(0.194324,0.980937,0.980937,-0.194324,-461.8023,566.4503)" />
  </defs>
  <path
     d="M 0,2.8421709e-14 L 732.08068,2.8421709e-14 L 732.08068,403.27992 C 729.97131,602.10811 541.16592,814.64919 369.39851,839.90072 C 200.96129,817.41417 3.45469,615.90944 0,403.27992 L 0,2.8421709e-14 z"
     id="path3349"
     style="fill:#000000;fill-opacity:1;fill-rule:nonzero;stroke:none;stroke-width:3.54330707;stroke-linecap:round;stroke-linejoin:round;stroke-miterlimit:4;stroke-dasharray:none;stroke-dashoffset:0;stroke-opacity:1" />
  <path
     d="M 365.56225,54.95482 C 349.31214,73.40638 315.61536,82.83408 320.06225,113.98607 C 326.58812,141.65928 353.61285,141.16947 361.18725,126.89232 C 364.88856,120.45641 363.0367,98.01891 359.406,93.89232 C 357.78762,90.1317 360.94201,87.8128 363.18725,86.14232 C 366.12958,102.32171 364.28092,110.8393 364.781,123.11107 C 370.11401,149.54165 400.34182,138.12245 403.31225,112.57982 C 400.19922,75.33754 377.31896,66.31104 365.56225,54.95482 z M 265.18725,128.42357 C 264.76491,128.42159 264.34916,128.43998 263.93725,128.45482 C 259.70045,128.60748 256.0009,129.6227 252.656,130.54857 C 243.24012,136.50815 243.1556,157.30152 248.5935,170.89232 C 259.67759,193.92465 271.74406,198.65866 289.531,193.95482 C 296.03846,191.14404 299.30248,187.09022 298.06225,182.26732 C 296.13027,172.45733 283.8297,166.3207 274.406,161.76732 C 265.96323,158.21594 263.0639,154.15387 263.06225,149.79857 C 263.26032,149.09287 263.81531,149.07094 264.62475,149.48607 C 274.49753,159.74691 287.3389,167.76541 298.68725,176.92357 C 304.42198,181.18639 312.30706,181.90259 314.781,174.07982 C 322.94552,163.13821 323.81576,149.10816 315.24975,142.23607 C 306.03247,133.03488 292.4664,135.60367 274.8435,130.07982 C 271.3581,128.89641 268.14365,128.43741 265.18725,128.42357 z M 118.8435,129.07982 C 124.17839,151.96605 110.55625,177.7063 123.0935,192.70482 C 131.89935,207.57199 158.2274,205.4646 163.656,196.79857 C 167.25218,180.63734 143.72155,156.53899 139.81225,150.61107 C 135.82244,144.70352 140.64106,144.1123 144.12475,146.61107 C 153.14229,152.83552 156.86601,179.92505 167.43725,189.70482 C 176.89527,188.74146 185.40675,170.83712 180.43725,157.39232 C 168.44055,136.81348 146.16054,129.67561 118.8435,129.07982 z M 609.49975,129.79857 C 586.40736,132.11253 558.65141,126.46806 542.74975,141.04857 C 528.665,157.97904 550.13206,181.87337 556.24975,190.23607 C 567.83661,177.6701 568.35328,152.83584 582.99975,145.64232 C 584.491,144.88284 586.03469,146.05246 584.37475,148.89232 C 575.77037,158.98318 570.27486,169.08271 564.906,179.17357 C 562.12798,186.53751 560.90624,193.277 565.156,197.82982 C 571.66125,204.61615 589.96999,203.09605 595.18725,198.01732 C 612.69785,187.61397 599.21544,158.60688 609.49975,129.79857 z M 440.2185,131.79857 C 421.99404,132.05351 405.20283,139.37806 401.531,157.89232 C 399.71141,172.30467 408.32198,172.99311 415.43725,168.61107 L 445.24975,153.11107 C 452.30442,150.34926 455.64231,150.8253 458.74975,151.51732 C 460.15465,152.72659 459.37495,157.68264 455.37475,154.32982 C 439.03869,152.82383 405.60329,173.05327 407.87475,184.51732 C 411.33041,194.47548 425.49013,200.10054 438.0935,200.79857 C 466.06258,201.9378 461.01793,159.45906 483.781,144.76732 C 473.482,136.84417 456.2989,131.57362 440.2185,131.79857 z M 358.156,138.95482 C 353.76253,150.54366 352.14033,173.51179 349.4685,191.29857 C 347.8601,196.59211 344.56895,202.99933 335.4685,198.39232 C 324.32474,188.80664 313.52531,181.4631 306.12475,180.86107 C 306.59431,186.47921 333.86041,205.69636 344.9685,224.07982 C 349.52765,231.63432 346.84278,239.78302 341.37475,240.45482 C 333.45659,241.75184 324.45296,243.06405 322.68725,244.36107 C 323.72836,248.01403 334.06283,246.7502 339.18725,248.01732 C 343.749,249.32418 345.79692,258.38662 346.0935,262.32982 C 347.83344,285.59192 348.18649,308.17649 343.9685,331.20482 C 342.46648,334.57978 340.74306,334.62132 338.49975,333.54857 C 317.20067,320.01876 288.97018,313.43958 263.31225,304.92357 C 247.00206,294.36145 230.3436,282.24656 212.531,264.92357 C 208.53699,269.75139 222.1773,285.14962 226.99975,295.26732 C 239.65711,302.55111 255.50391,313.63985 264.74975,316.82982 C 274.77289,326.18384 284.32036,325.6411 294.3435,328.95482 C 311.8835,334.12802 326.98415,342.2377 336.99975,360.95482 C 337.81953,369.64967 342.3886,377.04527 346.9685,384.23607 L 347.31225,384.20482 C 352.12684,397.40534 347.31704,415.71022 347.031,431.61107 C 344.60714,431.60252 343.55265,418.99294 336.8435,420.92357 C 331.20762,428.71256 341.23194,435.80493 343.4685,443.23607 C 343.92938,455.21602 342.0722,471.72277 347.99975,473.11107 L 347.281,491.36107 C 359.03526,489.72612 370.96936,489.02165 383.0935,489.23607 C 381.11386,453.33346 372.29945,398.31447 370.8435,382.04857 C 371.11048,378.60928 372.2568,376.41525 376.281,378.23607 L 381.37475,378.73607 C 383.14435,378.30752 384.62617,377.39759 384.156,373.23607 L 384.49975,358.67357 C 390.14779,352.43634 392.69573,347.39146 421.12475,332.39232 C 424.01466,331.76046 426.55369,332.20276 429.99975,332.86107 C 432.61115,336.18248 435.67703,342.65411 437.74975,342.20482 C 439.00944,340.96776 434.93373,333.31179 433.43725,328.76732 C 433.32763,327.30779 433.64107,326.0552 435.93725,325.79857 C 456.13326,313.63689 480.36974,304.8118 495.9685,292.86107 C 514.61714,278.57373 524.34075,263.53308 538.2185,246.98607 L 550.06225,254.26732 C 552.84293,254.39042 556.26457,255.18971 554.37475,250.64232 L 546.406,243.32982 C 544.15727,240.59047 544.53242,237.32488 545.281,233.98607 C 549.39906,224.0943 556.90557,210.24582 557.56225,204.39232 C 552.045,208.80681 546.54338,222.38713 538.656,233.76732 C 536.71081,234.88838 534.52489,235.5249 531.37475,234.23607 L 521.81225,225.79857 C 519.01473,224.65553 516.20991,223.5121 518.156,228.29857 L 528.406,238.11107 C 530.05806,240.02372 529.37732,241.32301 528.656,242.64232 C 515.21868,259.62457 500.20001,275.74952 480.12475,289.11107 C 452.71872,304.63411 428.04444,317.7666 407.02276,326.3249 C 394.47768,331.0907 382.89508,338.28141 375.4685,349.20482 C 373.98592,350.8573 373.33121,351.88736 372.531,350.29857 C 369.2122,318.40828 367.63988,286.37667 365.531,254.39232 C 375.822,254.58677 386.01619,256.98618 391.24975,254.48607 C 392.09962,250.90175 369.91474,248.03801 364.06225,244.29857 C 364.29797,232.18254 362.47478,221.76916 365.406,208.64232 C 369.21255,201.79764 367.78714,197.97962 364.2185,191.98607 C 362.39863,187.53476 360.15336,183.87762 360.49975,175.45482 C 359.71378,163.26752 359.67317,142.00226 358.156,138.95482 z M 489.2185,170.89232 C 481.5432,180.61123 467.57856,228.1541 493.8435,231.51732 C 498.51791,232.03169 504.79571,233.73165 510.281,225.73607 C 511.6779,223.22195 510.47023,220.22526 507.49975,220.54857 C 502.22175,211.7332 505.87356,210.65223 501.74975,203.95482 C 507.878,210.84176 505.08501,216.6103 518.0935,220.54857 C 521.48071,220.5648 524.87001,220.65197 527.906,215.04857 C 530.51391,213.22965 541.74474,197.5133 530.906,186.36107 C 519.14238,175.10137 499.30862,178.28311 489.2185,170.89232 z M 408.156,175.61107 C 392.89224,181.59731 378.958,187.14921 370.656,193.14232 C 370.52484,195.68848 370.04651,200.08069 372.156,200.86107 C 378.54436,198.46891 408.74914,181.01886 408.156,175.61107 z M 226.531,177.07982 C 215.81357,185.12834 190.22569,176.1836 185.18725,194.11107 C 183.99937,203.31871 185.49737,211.90647 192.7185,219.17357 C 194.84782,221.77452 197.64708,222.79169 201.7185,220.86107 C 209.86181,216.41719 210.45498,213.2136 215.031,206.98607 C 213.40691,211.69221 213.42651,213.24072 211.4685,218.51732 C 209.84137,218.88195 208.14353,219.12662 207.81225,221.11107 C 206.21091,228.76018 226.58988,231.78037 233.8435,218.20482 C 244.35266,199.15786 232.78001,186.26848 226.531,177.07982 z M 167.281,205.11107 C 167.1076,205.13676 167.02242,205.30764 166.99975,205.64232 C 167.63804,212.80482 172.97264,222.31666 177.12475,231.23607 C 179.35246,234.94143 179.16241,239.03184 176.156,243.11107 C 172.33732,247.70015 167.8977,252.02199 165.781,256.61107 C 171.25098,256.46887 177.98337,251.78262 184.12475,248.95482 C 186.14055,246.9921 187.50678,248.56427 189.156,250.26732 C 195.94219,261.05054 202.17905,272.73933 210.68725,280.76732 C 212.65352,281.77611 214.44536,282.35842 214.56225,279.29857 C 212.38232,272.59419 205.31244,260.52335 201.81225,251.79857 C 198.85399,245.22501 195.97735,239.19992 203.68725,228.57982 C 205.34597,224.564 204.75491,222.99368 201.531,224.23607 C 195.28359,226.96965 188.08233,236.21309 183.906,228.11107 C 177.265,218.18161 168.95723,204.86276 167.281,205.11107 z M 295.3435,208.51732 C 294.91035,208.52141 294.47381,208.54481 294.031,208.57982 C 268.6251,213.91946 253.89747,236.96978 243.8435,250.79857 C 254.3269,262.42688 268.60903,274.04526 285.156,285.67357 C 298.90951,293.56808 316.82621,275.18154 317.5935,260.89232 C 318.41646,255.22001 317.94143,247.7555 310.531,247.89232 C 293.2983,252.1011 282.83978,254.42772 271.06225,256.29857 C 276.04769,253.40009 281.69693,250.65506 291.87475,248.95482 C 298.05901,247.22951 301.60006,244.05735 309.93725,243.76732 C 314.72679,239.83791 318.9284,235.60269 319.7185,229.67357 C 317.51335,222.75011 308.77122,208.3906 295.3435,208.51732 z M 417.99975,219.86107 C 415.44295,219.91914 412.9821,220.50976 410.68725,221.76732 C 398.49617,228.83012 393.80547,240.27462 395.781,248.64232 C 396.92503,254.54662 402.47148,254.78562 406.81225,256.57982 C 421.76184,257.00575 439.53238,251.75197 450.99975,259.14232 C 435.18192,260.26239 420.27439,256.49334 401.8435,258.04857 C 399.40949,258.95312 398.43522,261.7575 399.43725,267.07982 C 401.02526,280.87074 413.53739,283.8461 420.99975,283.82982 C 443.78981,281.18036 462.69084,263.51623 474.406,251.61107 C 466.64868,254.22538 438.81943,219.38818 417.99975,219.86107 z M 134.8435,223.29857 C 128.51518,223.40743 122.04506,225.80918 116.281,231.11107 C 96.969246,257.0646 110.9119,278.49203 96.281,297.32982 C 113.44737,297.31431 165.01886,317.40405 177.406,278.14232 C 181.47174,265.98925 170.36655,253.32063 158.81225,264.07982 C 148.72111,274.47625 139.59323,279.88306 127.531,280.14232 C 126.85042,276.92623 129.64473,275.1694 132.62475,273.92357 C 145.33159,275.22054 153.98511,266.61257 162.18725,251.39232 C 163.51149,244.09089 161.98803,239.16249 158.81225,235.61107 C 153.00903,227.87061 144.09259,223.13947 134.8435,223.29857 z M 585.81225,224.11107 C 572.76709,224.24509 557.73913,232.04225 559.281,253.64232 C 565.24068,265.21985 579.22979,273.13266 592.18725,275.04857 C 595.7821,276.92834 596.26451,279.23796 596.62475,281.57982 C 578.63646,277.1922 573.74814,270.62374 563.87475,264.95482 C 555.31825,257.15149 547.03746,265.21367 547.24975,269.73607 C 544.05861,287.94915 555.07145,294.31523 565.656,301.04857 C 594.04342,307.81111 611.74525,295.41444 630.781,294.32982 C 622.14977,268.47094 624.31226,235.49352 592.7185,224.79857 C 590.5557,224.33771 588.22802,224.08625 585.81225,224.11107 z M 253.62475,337.20482 C 249.20973,337.39122 244.89283,339.6504 243.031,345.64232 C 239.35926,358.66546 245.15437,373.32555 251.49975,387.45482 C 269.69913,383.57541 284.91287,375.96682 290.0935,359.86107 C 291.4799,353.64142 277.43048,344.46849 271.49975,349.42357 C 268.68252,354.75718 265.87948,358.19217 263.06225,365.48607 C 262.78695,361.51285 266.71371,354.27877 268.06225,348.51732 C 267.83216,345.9646 267.69654,342.9978 264.906,341.29857 C 262.57365,338.90971 258.03977,337.01842 253.62475,337.20482 z M 463.781,338.61107 C 459.33998,338.73509 454.41815,340.03567 449.24975,342.42357 C 447.06342,343.83944 446.69434,346.28028 448.406,349.92357 C 455.33826,362.02175 469.53213,377.97119 466.781,384.39232 C 461.74985,380.9632 458.84979,361.79683 446.12475,350.54857 C 442.97239,346.77869 439.10939,345.20551 434.8435,348.67357 C 427.95724,356.15881 420.25373,363.99201 422.49975,377.92357 C 430.84212,399.01558 456.63912,392.91732 479.531,415.29857 C 482.56338,395.16043 490.58802,373.1022 482.24975,350.98607 C 478.97936,342.38137 472.25931,338.37431 463.781,338.61107 z M 355.50191,571.82754 C 349.29434,575.17494 342.47692,577.7092 334.94318,579.28837 C 334.09575,581.8858 333.58124,584.98262 333.61681,588.90455 C 343.41074,606.16392 337.73161,615.82389 335.60636,622.2296 C 326.2992,644.4259 300.74435,652.21273 306.09463,680.42408 C 309.16903,681.455 316.04279,672.35429 321.51368,666.99458 C 338.92098,651.43971 357.72886,648.13995 376.88963,647.92801 C 379.21281,646.81172 382.08774,647.71855 383.18989,642.12515 C 383.23459,633.73008 383.06548,625.44193 385.67683,615.76354 C 386.17422,617.33815 386.67161,617.92529 387.169,622.39539 C 387.98216,625.12082 388.53702,628.31118 391.4797,627.20348 C 393.69856,627.44805 394.45843,628.42212 399.93531,627.03769 C 400.87755,624.17752 401.72312,620.834 403.08544,620.07424 C 405.47752,616.03904 403.90503,613.76588 402.42225,611.45284 C 394.56672,604.34676 386.34291,600.92347 378.0502,598.18914 C 378.22594,592.88742 377.92452,587.93562 371.58415,587.41238 C 365.00459,583.43624 358.61195,579.27319 355.50191,571.82754 z M 388.32957,632.34316 C 391.62672,630.92291 395.77369,633.75176 399.93531,636.65387 C 398.85527,641.07695 399.55686,647.57859 396.12199,649.25438 C 385.6047,646.47333 385.17821,638.77812 388.32957,632.34316 z"
     id="path3547"
     style="fill:#018f4a;fill-opacity:1;fill-rule:evenodd;stroke:none;stroke-width:1px;stroke-linecap:butt;stroke-linejoin:miter;stroke-opacity:1" />
  <path
     d="M 261.2185,402.70482 C 247.2768,410.09976 236.77208,419.28818 232.906,431.98607 C 231.01099,434.53243 230.42467,432.56943 229.531,431.61107 C 231.9527,422.67116 238.73573,418.08366 235.49975,403.48607 C 229.40865,404.61388 224.528,409.3572 220.56225,416.86107 C 192.88268,417.64137 176.56124,444.7586 142.2185,446.36107 C 139.06302,448.87994 141.22206,452.36005 143.81225,455.92357 C 167.99785,476.6699 194.74368,457.18039 208.7185,490.42357 C 211.48764,509.90922 207.47658,520.57332 205.0935,533.36107 C 210.11261,535.70003 208.67777,552.63486 215.18725,557.95482 C 219.68992,553.37069 212.09305,537.60666 217.7185,534.64232 C 220.2068,537.57812 221.73511,541.32223 220.87475,547.04857 C 219.6199,562.39697 220.83817,579.71079 222.3435,597.26732 C 220.03988,613.00298 218.60694,633.08075 214.781,641.20482 C 207.94353,657.70546 194.0184,659.23227 196.68725,670.20482 C 201.62973,670.23961 205.90189,674.72465 210.781,667.67357 C 217.46273,675.84891 225.90221,665.90542 224.8435,656.76732 C 230.80533,656.05867 231.28883,650.39867 231.781,644.76732 C 228.23267,626.29596 234.78164,617.94098 237.87475,606.11107 C 252.41982,596.61269 265.32331,583.5772 271.31225,569.51732 C 274.53506,562.27584 277.74569,557.72305 280.9685,554.39232 C 283.83299,560.31648 274.80124,572.18203 271.7185,581.07982 C 297.27562,580.47241 320.50877,583.43316 357.281,565.73607 C 363.88435,561.40283 381.88423,554.58316 390.281,565.11107 C 394.16475,573.68616 399.47984,578.32523 407.281,576.26732 C 415.34111,594.41745 427.62873,604.71692 447.43725,601.04857 C 454.68861,619.73333 456.42637,637.57147 449.12475,654.01732 C 442.80365,663.80522 438.25948,665.27619 433.56225,667.48607 C 424.2825,673.43198 426.46142,683.45629 434.406,682.39232 C 443.08043,683.10751 447.53056,681.00145 451.2185,678.39232 C 462.48311,681.13893 462.41579,668.34935 460.906,662.64232 C 461.92804,658.008 465.75746,652.67546 468.87475,647.51732 C 472.95279,642.32143 470.31204,639.12423 469.0935,635.51732 C 464.55429,618.67524 467.28209,607.73664 471.62475,598.11107 C 473.48894,595.95541 472.65641,594.2424 471.18725,592.64232 C 457.93769,588.87096 454.3207,579.46558 457.31225,566.17357 C 461.97715,553.51001 460.98319,539.95593 454.99975,525.61107 C 454.17439,522.69698 454.41509,520.10724 458.5935,518.86107 C 497.42319,513.26628 519.20432,626.47363 602.56225,622.07982 C 639.12885,613.98607 653.75092,573.70673 620.43725,552.07982 C 617.07891,563.25063 609.19731,565.05343 598.56225,561.11107 C 562.12606,546.53042 489.8903,464.93919 449.9685,512.36107 C 448.90166,516.30999 448.59569,514.82407 447.031,513.61107 C 394.47118,460.34339 314.06819,532.85953 274.656,477.89232 C 264.56679,483.85426 255.1285,491.48629 240.18725,485.04857 C 237.62944,497.53154 222.22635,497.33264 214.87475,488.54857 L 215.781,487.01732 C 220.92198,487.54267 221.54528,481.83729 217.9685,479.04857 C 216.16231,474.12427 208.33125,472.63813 209.406,468.26732 C 215.09548,465.27686 229.16054,478.42565 226.74975,489.39232 C 233.34672,493.29842 238.15971,481.8342 231.12475,476.23607 C 226.63766,473.17973 221.56066,470.72991 219.9685,467.67357 C 221.22663,466.3413 224.85744,466.31181 228.531,468.26732 C 237.35621,473.80142 240.75796,483.22896 254.43725,483.42357 C 256.35857,479.65856 257.22075,474.67267 255.43725,466.67357 C 255.93926,466.68299 244.49878,454.58181 239.49975,452.14232 C 243.19085,453.30576 257.75979,460.49949 262.031,461.70482 C 265.74868,461.21634 269.17568,464.52652 273.37475,457.29857 C 271.65357,453.96434 270.37714,450.55989 265.5935,447.73607 C 258.74996,446.47564 251.90579,447.80185 245.06225,447.95482 C 249.10635,445.89511 250.95429,443.82703 258.8435,441.76732 C 262.2178,439.58814 265.55376,437.35365 265.81225,428.42357 C 265.68179,419.05702 262.19431,410.44731 261.2185,402.70482 z M 254.37475,415.82982 C 253.6879,423.82638 264.44419,439.3056 248.56225,437.39232 C 248.53613,436.93355 249.8115,428.81803 247.5935,427.20482 C 246.49845,426.40837 246.18633,426.6114 241.24975,431.23607 C 239.93113,432.00065 239.68119,431.41639 239.8435,430.32982 C 244.52502,424.5732 249.52705,420.3471 254.37475,415.82982 z M 214.656,428.48607 C 214.83896,429.29002 215.6682,430.11962 213.93725,430.92357 C 209.20203,430.74038 206.7062,432.58561 206.031,434.98607 C 206.72761,439.18408 206.61079,441.07075 203.031,441.73607 C 198.72243,441.40217 198.56971,439.89638 198.031,437.76732 C 196.35994,433.00417 190.49214,438.95026 190.4685,437.39232 C 196.99096,432.05296 204.77877,430.10497 214.656,428.48607 z M 263.12475,464.86107 C 257.44104,466.3609 258.97282,473.47269 257.8435,478.51732 C 262.61001,479.98037 267.95601,479.50892 273.8435,477.04857 C 271.17038,472.98502 270.94029,468.92462 263.12475,464.86107 z M 201.9685,535.42357 C 194.84431,541.73075 189.16677,552.18073 180.281,553.45482 C 173.28065,554.26002 168.98506,557.13806 165.656,560.76732 C 159.56549,564.94069 156.90852,565.55688 154.43725,566.11107 C 149.35683,567.16049 145.17035,570.60006 145.531,577.48607 C 145.94186,598.20532 134.89271,607.50027 139.531,626.61107 C 147.18495,629.12902 154.38337,621.85461 154.656,617.36107 C 159.78494,617.33143 162.57863,612.62105 159.12475,608.86107 C 155.86832,602.9458 155.53884,590.99059 163.31225,584.54857 C 165.3076,584.39633 167.32648,584.18166 170.156,582.36107 C 172.38925,580.34865 173.89142,578.47768 177.68725,576.20482 C 178.46907,575.5932 178.95651,574.68002 180.81225,575.14232 C 191.167,576.2399 201.57408,578.61062 211.656,570.70482 C 215.29172,568.61466 213.80771,566.51374 213.74975,564.42357 C 207.56716,556.4155 209.04696,543.04055 201.9685,535.42357 z M 376.156,564.98607 C 370.01047,565.18773 364.81602,567.7425 359.87475,570.95482 C 362.58444,577.75186 368.05473,581.32817 373.93725,584.42357 C 381.1843,586.2841 382.32449,591.63496 382.156,596.67357 C 391.03567,597.71919 404.33615,606.93635 406.4685,610.92357 C 409.24322,614.40675 407.92323,617.90914 407.0935,621.39232 C 402.81021,626.1302 403.24356,636.38443 401.8435,644.48607 C 401.3576,651.30316 400.21184,657.52256 394.43725,659.57982 C 389.37509,663.21785 386.54955,667.06282 387.37475,671.23607 C 387.26319,675.16893 389.47878,677.11769 396.8435,674.64232 C 400.80614,671.83256 404.02419,673.52963 407.49975,673.64232 C 417.95122,677.05556 418.577,666.38558 417.3435,660.57982 C 416.86819,644.23564 417.72933,627.89274 426.781,611.54857 C 429.18328,607.9206 428.1816,605.79192 425.781,604.29857 C 417.77154,600.83379 409.87876,591.29134 407.87475,587.42357 C 407.78076,583.56549 404.922,582.48466 401.656,581.79857 C 393.03643,577.49356 387.91687,572.24119 385.18725,566.32982 C 381.94624,565.30252 378.94942,564.89441 376.156,564.98607 z"
     id="path3614"
     style="fill:#e83c00;fill-opacity:1;fill-rule:evenodd;stroke:none;stroke-width:0.29055119;stroke-linecap:butt;stroke-linejoin:miter;stroke-miterlimit:4;stroke-dasharray:none;stroke-opacity:1" />
  <path
     d="M 3.21865,3.69269 L 728.86203,3.69269 L 728.86203,403.42651 C 726.77121,600.50637 539.62601,811.17854 369.36898,836.20803 C 202.41286,813.91921 6.64296,614.18634 3.21865,403.42651 L 3.21865,3.69269 z M 366.0341,46.34082 C 345.47849,65.73795 316.54986,75.81565 312.36941,111.62217 C 310.94758,130.01298 330.14545,146.03279 352.70285,139.1041 C 351.67472,157.08909 348.54561,185.57515 343.81536,191.31815 C 337.77786,195.56383 317.06711,184.39845 317.70833,174.09862 C 342.90925,156.63198 317.1306,125.26137 285.92653,126.95894 C 261.44325,127.33302 252.69568,124.55754 247.71927,116.88535 C 239.22433,142.19583 237.91936,182.96184 262.04138,197.66847 C 289.32323,212.54448 297.36179,181.75316 311.59817,194.65097 C 323.09696,200.23113 345.02429,225.59847 339.92707,236.31112 C 308.92261,244.23954 334.42305,194.33356 280.82969,204.19155 C 249.99853,219.27477 272.86294,222.87118 232.18533,249.42523 C 236.95949,255.1481 247.84686,257.59506 251.60755,264.64002 L 244.94193,265.19549 C 268.86654,278.91631 264.32243,293.4312 292.71224,293.52439 C 313.24632,287.28471 322.51382,277.28951 322.15208,264.08455 C 325.19379,253.74155 329.5195,249.81855 336.03879,256.86346 C 344.61037,265.12617 343.2963,329.82495 337.7052,325.74158 C 330.98253,325.74426 326.06017,316.14709 316.04192,316.85408 C 292.02743,307.53431 266.76968,299.86555 247.71927,287.96971 C 232.09844,275.5687 216.08311,262.53541 205.50365,246.86502 C 197.14179,233.56352 212.73116,229.93735 221.96976,230.4181 C 257.87456,232.43491 247.64475,193.05198 226.29231,170.54868 C 219.60327,185.56875 200.80487,170.52467 183.84037,182.98612 C 177.59578,197.04774 186.12386,210.46707 189.95053,224.09081 C 188.69708,222.76605 165.05069,208.09846 175.50834,190.20722 C 183.20973,176.09807 194.45244,162.77587 181.6185,144.10331 C 158.84428,127.44385 136.07006,127.03142 113.29585,118.55175 C 109.88811,137.76867 114.33254,136.00801 115.84272,144.56187 C 116.53621,148.4899 110.39238,149.53064 112.15021,168.31523 C 112.79,175.15225 113.63012,191.31153 119.34844,196.69408 C 132.46563,212.58728 153.60219,200.83473 163.8435,211.31503 C 166.16209,219.03778 182.81534,238.01292 168.4852,243.49384 C 161.76727,219.82595 133.42876,211.27077 116.25195,223.27983 C 96.925603,240.60452 98.751647,275.01384 90.52163,301.30096 C 115.62351,306.3259 152.86345,315.89669 174.3974,295.1908 C 190.91685,275.91178 169.41487,255.23305 183.84037,252.41971 C 212.47567,306.45582 255.03057,313.52761 282.7138,333.51814 C 280.23377,335.82919 279.14454,339.99464 274.06262,338.83651 C 259.6848,331.70557 246.06641,330.05583 240.9769,339.58992 C 233.1812,358.75955 245.38381,379.56682 250.49661,392.39782 C 265.00703,384.51571 284.57487,382.53392 293.82317,368.51267 C 296.67016,355.45642 287.7019,351.5898 282.7138,344.62751 C 285.32943,338.04392 290.57884,340.6786 294.93411,340.18376 C 319.1195,340.80931 331.9574,352.78235 333.26145,376.28923 C 345.43931,386.95263 338.79438,401.95975 339.92707,415.17204 C 331.25908,406.53516 327.27968,429.2639 338.26067,443.50094 C 336.99628,460.19671 340.1149,481.27548 334.37239,493.49312 C 304.60989,498.84066 284.12551,489.60832 274.38177,463.49781 C 280.65996,458.91921 281.47625,450.69934 282.15833,442.39 C 277.426,445.48262 272.63494,449.28009 268.82708,441.27907 C 273.00907,428.19482 262.86866,427.19885 268.27161,394.374 C 257.04978,398.90844 247.51239,405.9549 241.05365,412.07436 C 239.75239,406.21571 238.90762,400.47119 242.76299,395.9017 C 230.58211,395.3482 222.36067,404.91276 217.22199,411.52946 C 188.04785,417.42011 169.51946,440.30125 142.60755,440.2322 C 132.38003,442.55734 131.8642,450.71983 136.3052,457.00326 C 151.56429,479.87776 201.08067,464.54966 204.13645,494.72162 C 205.13314,514.38514 201.40897,536.71102 186.06225,545.77125 C 175.05507,548.48575 167.05862,552.70563 159.95522,557.37202 C 153.93813,563.21058 141.97717,560.16478 139.95834,576.25796 C 142.94058,595.51173 132.51756,603.48945 135.87786,625.94037 C 137.45502,634.10294 143.77015,630.34174 146.68804,630.88609 C 155.58828,626.60208 165.53395,623.50288 164.95444,608.47514 C 159.3023,598.8324 160.13726,593.2441 164.95444,590.14468 C 176.72384,587.9857 177.9009,577.61024 184.95131,580.70171 C 195.90327,583.4481 206.74975,578.55374 215.80129,574.96539 C 217.16952,583.91343 218.01492,592.86148 215.50209,601.80952 C 213.73614,620.77953 213.0962,641.42606 204.20051,649.08843 C 193.66355,656.18834 188.77329,667.54648 192.7173,672.72788 C 195.69083,677.63529 206.16114,677.16136 212.72474,673.65718 C 221.5629,675.98836 226.8001,670.61791 226.30169,662.3021 C 233.14081,658.77976 235.61322,654.87912 237.22943,649.3982 C 235.08693,630.44142 234.11376,612.63334 249.94115,604.58686 C 254.63434,595.02495 262.83256,591.59684 269.93802,586.2564 C 288.30597,587.2174 306.92897,587.1582 326.59583,582.92358 C 330.52116,597.06424 333.8959,610.96892 328.8177,621.25092 C 327.07489,632.7413 318.75471,636.45843 309.93176,639.58139 C 293.338,645.20381 280.45097,637.45378 274.24307,654.20521 L 297.71145,651.24623 C 308.68221,651.00848 306.8242,662.23375 303.20207,666.67122 C 299.59262,674.18149 297.94189,681.23192 301.2794,686.3689 C 311.17277,684.2094 319.17986,676.39109 327.15129,668.46576 C 345.98851,649.50544 379.79076,654.50485 394.10674,656.18138 C 377.21009,667.73501 380.87094,682.5245 398.80676,678.4642 C 410.62467,678.17199 422.46685,677.90916 422.13644,662.91108 C 426.07902,662.85677 428.01764,664.80644 429.35753,667.35482 C 423.63797,668.37617 418.86288,683.8548 434.35675,685.68529 C 436.47068,685.93503 453.05075,684.45227 455.09073,683.22828 C 462.80328,682.11715 464.76195,673.52598 466.01847,664.02201 C 470.58949,653.01911 477.41994,641.8296 473.79503,631.80483 C 468.10101,614.97676 473.32649,601.39714 481.26182,594.57786 C 478.16461,586.41472 458.9522,588.27828 461.57472,571.25874 C 465.84639,554.67216 465.36466,538.76464 460.46378,523.48843 C 498.57183,528.64054 511.94616,616.5543 588.64891,625.95094 C 637.6147,631.33214 667.54101,577.47914 615.50362,541.69076 C 617.70031,556.07568 609.5645,563.31426 594.33174,552.3728 C 562.69398,536.5142 486.92695,463.94789 446.57706,505.831 C 430.8097,493.11047 415.95594,488.92441 388.25285,488.61147 C 384.56556,458.92418 373.57122,388.89753 389.91926,379.06657 C 390.04547,350.88894 418.23209,332.98647 428.80207,336.85095 C 433.78099,345.19851 429.72259,350.15708 424.35832,354.62595 C 412.53811,366.6611 414.48634,378.69626 424.91378,390.73141 C 437.24353,398.76884 448.26382,408.11574 464.90753,411.83922 L 463.24112,406.28454 C 467.95882,411.72209 476.00595,416.84466 486.69895,418.76111 C 485.72136,392.59732 499.64493,347.49826 477.68331,334.43688 C 463.24324,327.62032 452.9616,334.94244 441.57785,338.51736 C 437.32976,331.75816 442.68159,323.91917 450.88211,321.7463 C 485.90329,308.67007 513.13238,288.97559 537.67393,252.97518 C 549.45245,257.35629 527.9703,284.46598 550.32157,298.89745 C 574.04537,315.57465 615.06943,305.06427 639.3247,295.74627 C 630.88806,273.15993 624.77235,217.11673 584.77121,215.38494 C 558.8971,216.86177 559.29662,247.77361 551.98798,241.55604 C 548.31808,236.36175 554.66068,219.64139 563.34305,206.75371 C 578.97956,207.45755 593.1112,208.28446 604.88564,193.54003 C 614.22816,175.63593 603.62679,157.24705 612.6622,134.66035 C 613.33656,131.12298 612.40962,123.11094 607.66299,117.99629 C 595.17629,133.88098 541.81872,120.66757 533.59345,144.27438 C 524.01083,168.87596 560.57588,189.21977 548.7833,209.64862 C 544.51568,217.71062 533.82913,238.07302 526.00909,225.75721 C 538.15798,216.8999 547.24813,195.63071 534.46925,181.25565 C 521.09334,170.09084 497.65035,176.25483 488.79268,162.43378 C 483.3721,166.54576 465.31296,213.77881 481.57159,233.53377 C 492.58968,241.15402 504.23767,240.27058 516.56612,230.20096 L 526.56456,240.1994 C 493.07549,284.12664 450.33465,305.8496 403.79541,318.45642 C 393.02753,321.04624 387.13487,330.54155 376.96185,334.37281 C 376.94706,307.30983 365.7896,272.80946 373.2552,259.08533 C 376.74699,257.53983 393.13153,256.05261 393.25207,266.30643 C 397.26299,269.88532 397.57286,295.27262 424.35832,290.74705 C 445.46896,283.14876 462.75955,264.80415 482.68253,251.86424 C 452.44872,246.37319 455.8412,211.19962 413.63941,214.76792 C 387.64923,221.39655 401.62174,245.70554 380.06336,247.59327 C 366.3311,243.94116 367.00049,221.97038 366.7848,218.31842 C 368.65499,210.97399 397.01358,191.36819 402.13957,190.76268 C 429.89718,213.85666 448.52787,216.48551 468.24034,190.76268 C 461.61765,180.7554 478.73837,149.67553 489.90362,146.88066 C 489.5955,137.85133 451.56836,118.38653 419.74956,127.63449 C 401.48827,136.31293 393.85638,150.84663 394.55824,161.563 C 395.7418,168.07864 396.29396,175.60712 386.78168,179.87101 C 383.69482,180.75196 374.5876,184.92867 370.47785,183.54159 C 362.19576,171.02571 365.92012,154.22181 364.92317,139.1041 C 369.29143,147.96515 410.04132,141.26573 407.83679,108.33562 C 400.65767,79.11007 382.36162,63.4962 366.0341,46.34082 z M 432.67806,604.02495 C 440.06934,605.7418 449.18068,605.20106 449.15278,616.65557 C 449.01913,633.4406 451.86801,652.01516 440.18321,661.86951 C 437.98658,663.2245 434.50858,664.60191 432.31195,663.51698 C 428.2848,660.63628 425.53902,657.23605 421.51187,658.94067 C 417.65296,633.87946 429.64109,623.08481 432.67806,604.02495 z"
     id="path3555"
     style="fill:#fdfa00;fill-opacity:1;fill-rule:nonzero;stroke:none;stroke-width:0.70866144;stroke-linecap:round;stroke-linejoin:round;stroke-miterlimit:4;stroke-dasharray:none;stroke-dashoffset:0;stroke-opacity:1" />
</svg>
